<svg xmlns="http://www.w3.org/2000/svg" width="1480" height="900" viewBox="0 0 1480 900">
  <defs>
    <linearGradient id="bg" x1="0" y1="0" x2="1" y2="1">
      <stop offset="0%" stop-color="#0b1220"/>
      <stop offset="100%" stop-color="#14233d"/>
    </linearGradient>
    <filter id="shadow" x="-20%" y="-20%" width="140%" height="140%">
      <feDropShadow dx="0" dy="10" stdDeviation="12" flood-color="#000000" flood-opacity="0.35"/>
    </filter>
  </defs>
  <rect width="1480" height="900" fill="url(#bg)"/>
  <text x="740" y="48" text-anchor="middle" font-family="Segoe UI, Arial, sans-serif" font-size="28" fill="#e7f5ee">Azalyst Alpha Research Engine - Spyder Monitor</text>
  <rect x="40" y="80" width="680" height="360" rx="20" fill="#f5f7fb" filter="url(#shadow)"/>
  <rect x="760" y="80" width="680" height="360" rx="20" fill="#f5f7fb" filter="url(#shadow)"/>
  <rect x="40" y="470" width="680" height="360" rx="20" fill="#f5f7fb" filter="url(#shadow)"/>
  <rect x="760" y="470" width="680" height="360" rx="20" fill="#f5f7fb" filter="url(#shadow)"/>
  <text x="380" y="115" text-anchor="middle" font-family="Segoe UI, Arial, sans-serif" font-size="18" fill="#111827">Training Quality by Cycle</text>
  <text x="1100" y="115" text-anchor="middle" font-family="Segoe UI, Arial, sans-serif" font-size="18" fill="#111827">PnL and Drawdown</text>
  <text x="68" y="505" font-family="Segoe UI, Arial, sans-serif" font-size="18" fill="#111827">Current Status</text>
  <text x="788" y="505" font-family="Segoe UI, Arial, sans-serif" font-size="18" fill="#111827">Recent Log Tail</text>
  <line x1="90" y1="390" x2="680" y2="390" stroke="#cbd5e1" stroke-width="1"/>
  <line x1="90" y1="150" x2="90" y2="390" stroke="#cbd5e1" stroke-width="1"/>
  <line x1="810" y1="390" x2="1400" y2="390" stroke="#cbd5e1" stroke-width="1"/>
  <line x1="810" y1="150" x2="810" y2="390" stroke="#cbd5e1" stroke-width="1"/>
  <polyline fill="none" stroke="#1f77b4" stroke-width="3" points="90.0,162.6 129.3,202.8 168.7,350.6 208.0,247.8 247.3,218.6 286.7,150.0 326.0,260.9 365.3,302.7 404.7,269.9 444.0,297.8 483.3,348.5 522.7,386.7 562.0,390.0 601.3,334.2 640.7,325.5 680.0,342.1"/>
  <polyline fill="none" stroke="#ff7f0e" stroke-width="3" points="90.0,162.0 129.3,201.2 168.7,349.0 208.0,245.5 247.3,217.0 286.7,150.0 326.0,258.5 365.3,300.3 404.7,267.6 444.0,295.4 483.3,346.8 522.7,386.5 562.0,390.0 601.3,332.1 640.7,323.3 680.0,340.4"/>
  <polyline fill="none" stroke="#1f77b4" stroke-width="3" points="810.0,150.0 849.3,192.7 888.7,333.2 928.0,242.9 967.3,222.5 1006.7,188.3 1046.0,253.2 1085.3,298.5 1124.7,261.0 1164.0,299.3 1203.3,345.6 1242.7,390.0 1282.0,374.3 1321.3,312.6 1360.7,302.8 1400.0,307.3"/>
  <polyline fill="none" stroke="#ff7f0e" stroke-width="3" points="810.0,223.6 849.3,150.0 888.7,300.7 928.0,241.7 967.3,289.6 1006.7,192.6 1046.0,238.0 1085.3,287.0 1124.7,240.6 1164.0,306.2 1203.3,289.9 1242.7,390.0 1282.0,324.5 1321.3,241.6 1360.7,248.1 1400.0,253.8"/>
  <text x="520" y="145" font-family="Segoe UI, Arial, sans-serif" font-size="14" fill="#1f77b4">Win rate</text>
  <text x="610" y="145" font-family="Segoe UI, Arial, sans-serif" font-size="14" fill="#ff7f0e">Sharpe</text>
  <text x="1240" y="145" font-family="Segoe UI, Arial, sans-serif" font-size="14" fill="#1f77b4">Total PnL %</text>
  <text x="1350" y="145" font-family="Segoe UI, Arial, sans-serif" font-size="14" fill="#ff7f0e">Drawdown %</text>
  <text x="68" y="540" font-family="Consolas, Courier New, monospace" font-size="15" fill="#111827">Run state      : RUNNING</text>
  <text x="68" y="564" font-family="Consolas, Courier New, monospace" font-size="15" fill="#111827">Team PID       : 9500</text>
  <text x="68" y="588" font-family="Consolas, Courier New, monospace" font-size="15" fill="#111827">Simulator PID  : 24288</text>
  <text x="68" y="612" font-family="Consolas, Courier New, monospace" font-size="15" fill="#111827">Cycle index    : 1</text>
  <text x="68" y="636" font-family="Consolas, Courier New, monospace" font-size="15" fill="#111827">Current step   : n/a</text>
  <text x="68" y="660" font-family="Consolas, Courier New, monospace" font-size="15" fill="#111827">Last checkpoint: n/a</text>
  <text x="68" y="684" font-family="Consolas, Courier New, monospace" font-size="15" fill="#111827"></text>
  <text x="68" y="708" font-family="Consolas, Courier New, monospace" font-size="15" fill="#111827">Latest cycle   : 0</text>
  <text x="68" y="732" font-family="Consolas, Courier New, monospace" font-size="15" fill="#111827">Trades         : 465</text>
  <text x="68" y="756" font-family="Consolas, Courier New, monospace" font-size="15" fill="#111827">Win rate       : 44.300%</text>
  <text x="68" y="780" font-family="Consolas, Courier New, monospace" font-size="15" fill="#111827">Sharpe         : 1.221</text>
  <text x="68" y="804" font-family="Consolas, Courier New, monospace" font-size="15" fill="#111827">Drawdown       : -21.270%</text>
  <text x="68" y="828" font-family="Consolas, Courier New, monospace" font-size="15" fill="#111827">Profit factor  : 1.170</text>
  <text x="788" y="540" font-family="Consolas, Courier New, monospace" font-size="14" fill="#111827">[01:20:57] [MARCUS (Developer)]     │  Elapsed  : 4.6m  |  ETA: 8.1m</text>
  <text x="788" y="562" font-family="Consolas, Courier New, monospace" font-size="14" fill="#111827">[01:20:57] [MARCUS (Developer)]     └───────────────────────────────────────────────────────────────────┘</text>
  <text x="788" y="584" font-family="Consolas, Courier New, monospace" font-size="14" fill="#111827">[01:20:57] [MARCUS (Developer)]     ── Cycle 1 ──────────────────────────────────────────</text>
  <text x="788" y="606" font-family="Consolas, Courier New, monospace" font-size="14" fill="#111827">[01:20:57] [MARCUS (Developer)]        Train  : 2023-04-06 → 2024-04-05</text>
  <text x="788" y="628" font-family="Consolas, Courier New, monospace" font-size="14" fill="#111827">[01:20:57] [MARCUS (Developer)]        Predict: 2024-04-05 → 2024-05-05</text>
  <text x="788" y="650" font-family="Consolas, Courier New, monospace" font-size="14" fill="#111827">[01:20:57] [MARCUS (Developer)]     [1] Building cross-sectional training dataset...</text>
  <text x="788" y="672" font-family="Consolas, Courier New, monospace" font-size="14" fill="#111827">[01:21:02] [MARCUS (Developer)]        Training rows: 24,666 | Symbols: 15</text>
  <text x="788" y="694" font-family="Consolas, Courier New, monospace" font-size="14" fill="#111827">[01:21:02] [MARCUS (Developer)]     [2] Cross-sectional ranking...</text>
  <text x="788" y="716" font-family="Consolas, Courier New, monospace" font-size="14" fill="#111827">[01:21:17] [MARCUS (Developer)] Simulator still running... 5m 00s elapsed</text>
  <text x="788" y="738" font-family="Consolas, Courier New, monospace" font-size="14" fill="#111827">[01:21:19] [MARCUS (Developer)]     [3] Training model on 24,635 samples...</text>
  <text x="788" y="760" font-family="Consolas, Courier New, monospace" font-size="14" fill="#111827">[01:21:20] [MARCUS (Developer)]       CV AUC: 0.5126 (±0.0065)</text>
  <text x="788" y="782" font-family="Consolas, Courier New, monospace" font-size="14" fill="#111827">[01:21:30] [MARCUS (Developer)]        Model saved → model_2024_04.pkl</text>
  <text x="788" y="804" font-family="Consolas, Courier New, monospace" font-size="14" fill="#111827">[01:21:30] [MARCUS (Developer)]     [4] Building predict window dataset...</text>
  <text x="788" y="826" font-family="Consolas, Courier New, monospace" font-size="14" fill="#111827">[01:21:34] [MARCUS (Developer)]     [5] Generating signals (2715 bars × symbols)...</text>
</svg>
